<?xml version="1.0" encoding="UTF-8" standalone="no"?>
<!-- Created with Inkscape (http://www.inkscape.org/) -->

<svg
   width="210mm"
   height="297mm"
   viewBox="0 0 210 297"
   version="1.1"
   id="svg1"
   xml:space="preserve"
   inkscape:version="1.3 (0e150ed6c4, 2023-07-21)"
   sodipodi:docname="cowPartINK.svg"
   xmlns:inkscape="http://www.inkscape.org/namespaces/inkscape"
   xmlns:sodipodi="http://sodipodi.sourceforge.net/DTD/sodipodi-0.dtd"
   xmlns="http://www.w3.org/2000/svg"
   xmlns:svg="http://www.w3.org/2000/svg"><sodipodi:namedview
     id="namedview1"
     pagecolor="#ffffff"
     bordercolor="#000000"
     borderopacity="0.25"
     inkscape:showpageshadow="2"
     inkscape:pageopacity="0.0"
     inkscape:pagecheckerboard="0"
     inkscape:deskcolor="#d1d1d1"
     inkscape:document-units="mm"
     inkscape:zoom="0.58083614"
     inkscape:cx="396.8417"
     inkscape:cy="285.79489"
     inkscape:window-width="1368"
     inkscape:window-height="890"
     inkscape:window-x="-6"
     inkscape:window-y="-6"
     inkscape:window-maximized="1"
     inkscape:current-layer="Rabo" /><defs
     id="defs1"><style
       id="style1">&#10;      .cls-1 {&#10;        fill: #1d1d1b;&#10;        stroke: #1d1d1b;&#10;        stroke-miterlimit: 10;&#10;      }&#10;    </style></defs><g
     inkscape:label="Capa 1"
     inkscape:groupmode="layer"
     id="layer1"><g
       id="g1"
       transform="matrix(0.26458333,0,0,0.26458333,38.960167,101.85541)"><g
         id="Carrillada"><path
           class="cls-1"
           d="m 82.48,43.83 c 0.95,-0.43 5.79,-2.59 8.27,-0.54 1.75,1.45 1.53,4.38 1.44,5.57 -2.2,29.7 1.21,11.73 -1.62,28.94 -1.8,10.98 -2.55,15.45 -2.7,16.36 -3.42,20.85 -3.46,22.09 -4.85,26.25 -3.11,9.26 -4.97,9.14 -6.65,17.08 -0.75,3.54 -1.31,7.94 -3.24,8.27 -1.59,0.27 -4.66,-2.12 -6.29,-3.96 -0.45,-0.5 -0.96,-1.16 -1.8,-1.26 -1.35,-0.16 -2.01,1.29 -3.24,1.26 -1.27,-0.03 -1.96,-1.65 -2.88,-2.88 -3.33,-4.43 -10.22,-4.33 -10.61,-4.31 -2.43,0.07 -3.84,0.96 -8.09,3.42 -9.21,5.33 -13.83,7.98 -14.74,7.37 -2.06,-1.38 1.76,-10.16 7.91,-24.45 11.63,-27.05 15.44,-36.31 22.11,-46.2 4.37,-6.49 9.35,-12.58 9.35,-12.58 2.6,-3.18 1.7,-1.85 7.37,-8.45 5.64,-6.56 7,-8.43 10.25,-9.89 z"
           id="path1"
           parte="Carrillada" /></g><g
         id="Morcillo_anterior"
         data-name="Morcillo anterior"><path
           class="cls-1"
           d="m 166.07,300.91 c 0.83,-1.16 5.23,2.62 12.58,3.24 4.13,0.35 10.48,-0.19 16.36,-3.42 4.04,-2.22 5.6,-4.46 7.01,-3.78 1.91,0.93 0.88,5.97 0.36,11.51 -0.14,1.5 0.27,9.27 1.08,24.81 1.15,21.93 1.48,18.38 1.44,23.73 -0.07,8.25 -0.82,11.13 1.08,15.46 0.68,1.55 1.76,3.41 1.08,5.39 -0.91,2.67 -3.92,2.37 -5.39,5.39 -1.05,2.17 0.21,2.91 -0.72,6.47 -0.41,1.56 -1.09,4.16 -3.24,5.75 -0.63,0.47 -1.5,0.93 -7.37,1.26 -6.91,0.39 -7.96,-0.13 -8.45,-0.9 -0.66,-1.05 -0.23,-2.5 -0.09,-2.98 0.52,-1.74 1.63,-1.91 2.78,-3.49 1.88,-2.6 0.29,-4.06 2.16,-7.01 1.2,-1.9 2.16,-1.77 2.88,-3.6 0.62,-1.58 0.32,-2.75 0.18,-4.49 -0.45,-5.67 1.71,-6.14 0.9,-10.07 -0.58,-2.78 -1.68,-2.67 -3.06,-6.83 -0.89,-2.7 -1.12,-4.83 -1.26,-6.11 -1.74,-15.71 -2.62,-23.57 -4.67,-27.87 -2.41,-5.04 -6.69,-10.22 -11.33,-15.82 -2.52,-3.04 -4.97,-5.74 -4.31,-6.65 z"
           id="path2"
           parte="Morcillo anterior" /></g><g
         id="Rabillo"><path
           class="cls-1"
           d="m 382.7,165.54 c 1.42,-0.57 2.59,1.91 6.47,4.31 5.15,3.19 14.21,5.68 21.39,3.06 1.51,-0.55 3.32,-1.47 4.13,-0.72 1.16,1.07 -0.57,4.68 -1.08,5.75 -3.95,8.44 -4.93,18.05 -8.63,26.61 -11.76,27.22 -14.81,42.08 -17.62,41.53 -1.84,-0.36 -0.61,-6.78 -1.98,-24.45 -3.14,-40.57 -3.6,-44.4 -3.6,-44.4 -0.45,-3.83 -1.33,-10.79 0.9,-11.69 z"
           id="path3"
           parte="Rabillo" /></g><g
         id="Llana"><path
           class="cls-1"
           d="m 175.6,182.07 c 1.49,-1.07 4.31,-0.67 9.89,0.18 4.32,0.66 6.48,0.99 7.55,1.62 6.52,3.83 6.48,14.8 6.47,16.72 0,1.39 -0.48,4.1 -1.44,9.53 -1.25,7.09 -1.8,8.05 -2.7,8.63 -2.01,1.3 -4.28,-0.27 -11.51,-2.88 -10.28,-3.7 -11.94,-2.77 -13.3,-5.03 -2.16,-3.59 1.87,-6.19 3.06,-17.26 0.72,-6.74 -0.34,-9.84 1.98,-11.51 z"
           id="path4"
           parte="Llana" /></g><g
         id="Pez"><path
           class="cls-1"
           d="m 156.77,159.47 c 1.21,-2.88 2.44,-5.11 4.18,-7.28 4.19,-5.24 11.76,-11.13 14.97,-9.3 3.27,1.86 -0.02,10.57 -2.83,28.04 -4.31,26.73 -1.82,38.61 -6.07,39.64 -4.31,1.05 -11.25,-10.13 -14.02,-19.42 -3.96,-13.24 0.76,-24.5 3.78,-31.69 z"
           id="path5"
           parte="pez" /></g><g
         id="Espaldilla"><path
           class="cls-1"
           d="m 181.31,141.94 c 3.94,-3.77 9.14,0.92 21.84,-1.21 6.23,-1.05 8.76,-2.81 11.73,-1.08 2.58,1.5 3.29,4.51 4.72,10.52 1,4.2 2.67,11.61 0.54,20.22 -0.55,2.25 -0.68,1.8 -1.62,5.26 -2.11,7.78 -1.19,9.04 -3.1,13.21 -1.37,2.98 -2.37,3.5 -3.1,6.47 -0.53,2.12 -0.46,3.64 -0.4,5.93 0.23,10.16 -0.52,7.61 -0.27,16.18 0.14,4.75 0.39,6.39 -0.81,7.28 -1.32,0.98 -3.42,0.34 -7.15,-0.81 -3.02,-0.93 -4.53,-1.4 -5.12,-2.56 -1.1,-2.17 1.34,-4.95 2.97,-7.96 3.51,-6.47 3.54,-14.44 1.89,-19.96 -1.95,-6.52 -7.38,-13.39 -14.56,-15.51 -6.42,-1.89 -9.75,1.33 -12.27,-1.21 -2.91,-2.94 0.81,-7.97 2.56,-22.65 1.03,-8.57 0.16,-10.23 2.16,-12.13 z"
           id="path6"
           parte="espaldilla" /></g><g
         id="Cabeza"><path
           class="cls-1"
           d="m 41.31,0.5 c 1.36,-0.11 3.07,4.85 4.49,8.99 1.59,4.62 1.77,6.71 3.78,7.91 1.95,1.17 2.99,-0.3 5.21,0.72 5.08,2.32 4.75,9.32 8.09,9.89 1.77,0.3 1.95,-1.86 5.03,-3.06 3.89,-1.52 6.05,0.86 12.76,1.08 5.28,0.17 6.83,-1.21 7.55,-0.36 2.25,2.68 -12.83,16.5 -26.07,33.98 0,0 -14.9,20.09 -32,59.51 -2.76,6.36 -4.14,9.54 -5.03,12.76 -2.3,8.3 -2.41,15.14 -4.67,15.46 -1.61,0.23 -2.17,-3.21 -5.57,-3.96 -2.93,-0.64 -4.07,1.39 -6.65,0.72 -2.85,-0.74 -4.3,-3.95 -5.75,-7.19 -0.92,-2.05 -2.51,-5.59 -1.8,-9.17 0.15,-0.74 0.51,-2.05 0.72,-4.13 0.19,-1.91 0.05,-2.42 0.18,-3.24 0.43,-2.65 2.98,-3.81 5.03,-5.57 2.25,-1.93 1.15,-2.22 6.47,-12.4 2.22,-4.26 3.25,-5.81 4.31,-9.17 0.47,-1.48 1.03,-3.29 1.26,-5.75 0.32,-3.47 -0.41,-3.94 -0.18,-7.37 0.24,-3.62 1.09,-3.5 1.44,-7.37 0.4,-4.38 -0.63,-5.11 0.36,-7.19 1.26,-2.65 3.18,-2.04 4.67,-4.67 1.51,-2.65 -0.03,-3.97 0.9,-8.63 0.71,-3.55 2.28,-6.23 3.06,-7.55 2.48,-4.22 4.73,-5.45 4.3,-7.68 -0.24,-1.25 -1.06,-1.41 -2.5,-3.11 -1.96,-2.31 -2.65,-4.81 -3.96,-9.71 -1.43,-5.35 -2.14,-8.03 -1.26,-8.81 2.47,-2.2 11.32,5.85 13.84,3.6 1.29,-1.16 -0.53,-3.74 -0.36,-9.71 0.11,-3.78 1.01,-8.7 2.34,-8.81 z"
           id="path7"
           parte="cabeza" /></g><g
         id="Lomo_bajo"
         data-name="Lomo bajo"><path
           class="cls-1"
           d="m 297.13,62.16 c 7.82,62.29 7.55,63.28 7.82,62.29 0.27,-0.99 71.46,-3.51 71.46,-3.51 V 108 c 0,0 0.24,-44.4 3.06,-43.33 0.1,-0.46 -32.31,19.15 -35.6,17.98 -48.7,-14.59 -45.27,-19 -46.74,-20.49 z"
           id="path8"
           parte="Lomo bajo" /></g><g
         id="Solomillo"><path
           class="cls-1"
           d="m 298.39,56.05 c 15.63,14.97 32.96,20.56 42.7,20.09 7.59,-0.36 19.11,-4.82 20.36,-5.53 0.89,-0.5 1.75,-1.04 1.75,-1.04 0.64,-0.4 1.14,-0.74 1.49,-0.98 8.7,-5.95 28.23,-22.98 26.28,-25.7 -0.33,-0.47 -1.2,-0.37 -1.61,-0.33 -6.07,0.71 -42.45,5.25 -92.4,11.69 l 1.44,1.8 z"
           id="path9"
           parte="Solomillo" /></g><g
         id="Tapa"><path
           class="cls-1"
           d="m 435.74,113.94 c 2.67,4.13 2.37,8.25 1.98,13.66 -0.34,4.69 -0.66,9.12 -4.13,12.22 -2.4,2.14 -5.25,2.72 -6.65,2.88 -0.24,0.03 -4.27,0.44 -8.09,-1.8 -5.77,-3.37 -7.8,-10.86 -7.55,-16.36 0.32,-7.06 4.65,-16.87 12.22,-17.62 5.27,-0.52 9.99,3.56 12.22,7.01 z"
           id="path10"
           parte="Tapa" /></g><g
         id="Babilla"><path
           class="cls-1"
           d="m 411.65,140.01 c 3.65,4.6 9.05,3.46 10.07,6.65 0.13,0.41 0.02,0.35 -0.81,4.18 -0.74,3.4 -1.07,5.39 -2.02,9.17 -0.52,2.04 -0.76,2.83 -1.35,3.78 0,0 -1.16,1.88 -3.19,3.19 -2.87,1.85 -6.44,0.99 -13.84,0.54 -6.74,-0.41 -10.16,-0.65 -12.58,-2.34 -4.68,-3.27 -5.83,-9.13 -6.47,-12.4 -0.84,-4.28 -0.18,-6.24 0,-13.84 0.12,-5.37 -0.08,-9.72 -0.27,-12.49 9.14,-0.63 18.28,-1.26 27.42,-1.89 -0.45,1.91 -1.15,6.08 0.54,10.79 0.34,0.95 1.02,2.79 2.52,4.67 z"
           id="path11"
           parte="Babilla" /></g><g
         id="Tapilla"><path
           class="cls-1"
           d="m 460.28,82.48 c -0.61,-3.84 -0.75,-5.62 -0.59,-5.65 0.17,-0.03 1.23,4.91 1.94,10.23 0.28,2.11 0.22,2.11 0.67,6.61 0.97,9.6 1.4,10.97 0.99,14.16 -0.45,3.52 -0.19,6.12 -2.2,7.28 -1.76,1.01 -17.53,0.96 -19.96,0 -4.92,-1.96 -6.26,-9.45 -6.66,-11.66 -3.05,-17.04 17.76,-34.76 20.68,-37.15 2.67,-2.18 5.12,16.18 5.12,16.18 z"
           id="path12"
           parte="Tapilla" /></g><g
         id="Costillar"><path
           class="cls-1"
           d="m 246.16,253.45 c -2.84,-2.61 -2.18,-6.25 -2.69,-11.87 -0.44,-4.77 -3.17,-11.45 -8.63,-24.81 -7.5,-18.34 -7.98,-13.96 -10.52,-20.49 -0.29,-0.75 -1.83,-4.77 -4.04,-4.85 -0.63,-0.02 -0.94,0.28 -1.16,0.11 -0.95,-0.74 3.52,-6.99 6.02,-13.32 0.5,-1.27 3.02,-7.87 2.7,-15.64 -0.49,-11.95 -7.55,-22.92 -7.55,-22.92 19.24,-2.7 38.47,-5.39 57.71,-8.09 3.4,24.62 3.93,44 3.78,56.9 -0.18,14.73 -1.28,24.45 -2.97,33.17 -1.96,10.14 -2.49,7.5 -4.85,19.15 -1.9,9.34 -2.23,14.36 -5.93,16.18 -0.77,0.38 -1.5,0.53 -9.17,-0.54 -10.54,-1.47 -11.74,-2.11 -12.68,-2.97 z"
           id="path13"
           parte="Costillar" /></g><g
         id="Aleta"><path
           class="cls-1"
           d="m 217.85,196.55 c 1.01,-0.13 2.25,2.1 4.85,6.47 1.83,3.07 2.16,4.41 4.58,8.63 2.18,3.79 2.1,3.03 2.97,4.85 1.93,4.04 1.47,5.95 3.24,11.33 0.76,2.3 1.32,3.4 2.16,5.39 1.31,3.11 8.18,19.46 4.58,22.11 -1.68,1.24 -3.9,-1.81 -9.44,-2.7 -8.66,-1.39 -13.87,5.67 -16.99,3.51 -1.97,-1.37 -1.17,-4.9 -0.45,-11.69 1.1,-10.35 -0.6,-3.44 1.08,-26.79 1.32,-18.39 2.26,-20.98 3.42,-21.12 z"
           id="path14"
           parte="Aleta" /></g><g
         id="Brazuelo"><path
           class="cls-1"
           d="m 170.21,216.95 c 1.57,-0.72 2.78,0.36 10.79,3.06 9.5,3.2 8.84,3.82 14.38,5.39 8.26,2.35 12.71,1.82 14.2,5.03 0.35,0.76 0.18,1.11 0,4.49 -0.17,3.17 -0.09,6.35 -0.18,9.53 -0.5,16.84 0.08,16.39 -0.72,19.6 -1.06,4.26 -2.05,4.9 -3.6,11.33 -0.16,0.65 -0.9,3.75 -1.62,8.09 -1.02,6.12 -0.26,6.2 -1.08,7.73 -1.41,2.63 -4.96,3.91 -12.04,6.47 -3.4,1.23 -5.14,1.85 -7.19,1.98 -3.3,0.21 -6.44,-0.52 -8.81,-1.08 -3,-0.7 -3.32,-1.12 -5.39,-1.26 -2.91,-0.2 -4.01,0.5 -5.03,-0.36 -1.05,-0.88 -0.34,-1.98 -1.26,-5.39 -0.55,-2.06 -0.94,-2.15 -1.62,-4.49 0,0 -0.6,-2.07 -0.9,-4.67 -0.82,-7.14 5.34,-31.26 6.65,-48.36 0.71,-9.25 -0.07,-15.48 3.42,-17.08 z"
           id="path15"
           parte="Brazuelo" /></g><g
         id="Pecho"><path
           class="cls-1"
           d="m 149.71,161.94 c 1.3,-0.5 2.05,-1 2.34,-0.72 0.61,0.59 -2.31,3.4 -3.6,7.37 -0.96,2.95 -0.33,4.42 0.18,10.43 0.87,10.14 -0.63,9.27 0.54,13.84 1.43,5.6 3.4,5.87 5.21,12.4 0.29,1.06 0.73,2.81 2.16,4.49 0.71,0.84 1.3,1.23 4.13,3.24 2.53,1.79 3.79,2.69 3.96,2.88 2.44,2.82 0.6,8.22 0,10.07 -2.17,6.66 -3.31,14.75 -5.57,30.92 -1.76,12.57 -0.74,19.92 -2.88,20.31 -1.5,0.28 -2.05,-3.35 -6.83,-9.17 -5.89,-7.16 -10.11,-7.79 -13.12,-14.56 -0.74,-1.66 -0.43,-1.5 -1.8,-6.11 -2.17,-7.3 -4.13,-11.72 -6.11,-16.72 -5.23,-13.17 -4.88,-15.97 -10.97,-31.46 -2.69,-6.86 -3.71,-8.74 -4.49,-10.07 -3.98,-6.77 -7.25,-8.57 -6.47,-10.97 0.56,-1.74 4.69,-2.77 12.94,-4.85 3.66,-0.92 9.17,-2.16 9.17,-2.16 0,0 3.42,-1.34 5.21,-2.16 6.29,-2.86 5.68,-5.16 9.71,-5.93 2.12,-0.41 3.5,0 6.29,-1.08 z"
           id="path16"
           parte="Pecho" /></g><g
         id="Morrillo"><path
           class="cls-1"
           d="m 122.03,48.86 c 0.22,-0.3 2.49,1.6 7.01,2.34 2.37,0.39 3.2,0.11 5.57,0.72 2.52,0.65 3.11,1.36 5.21,2.16 1.99,0.76 2.42,0.49 9.35,1.08 5.11,0.44 8.44,0.89 9.55,1.04 2.56,0.36 4.37,0.68 4.83,0.76 7.9,1.34 20.46,-1.06 34.7,-2.52 9.56,-0.98 14.46,-1.46 19.96,-0.9 4.95,0.5 6.8,1.31 14.02,1.8 4.44,0.3 5.71,0.12 6.11,0.9 1.5,2.85 -10.65,14.8 -24.45,20.85 -25.42,11.15 -51.82,0.23 -57.17,-1.98 -21.79,-9.01 -35.26,-25.47 -34.7,-26.25 z"
           id="path17"
           parte="Morrillo" /></g><g
         id="Aguja"><path
           class="cls-1"
           d="m 148.81,76.55 c 1.6,-1.19 5.05,3.33 11.51,5.75 4.24,1.59 6.92,1.64 15.46,2.52 15.89,1.62 14.27,2.22 17.98,2.16 17.2,-0.3 28.06,-12.81 30.56,-10.07 0.83,0.91 -0.23,2.43 -3.24,10.43 -4.68,12.43 -5.19,14.91 -5.39,16.18 -0.59,3.63 -0.74,7.44 -0.9,11.33 -0.1,2.63 -0.06,3.33 -0.18,7.37 -0.31,10.35 -0.77,11.43 -1.62,12.22 -0.95,0.89 -1.78,0.87 -9.53,1.08 0,0 -5.87,0.16 -11.15,0.36 -5.2,0.2 -7.87,0.3 -11.15,0.72 -5.43,0.69 -8.14,1.04 -10.61,2.52 -3.57,2.14 -4.1,4.45 -6.29,4.31 -2.33,-0.14 -3.93,-2.91 -5.75,-5.75 -0.62,-0.97 -0.96,-1.69 -3.24,-7.19 -1.45,-3.51 -2.18,-5.26 -2.52,-6.11 -2.61,-6.57 -3.92,-9.86 -4.31,-11.51 -0.41,-1.7 -0.69,-5.92 -1.26,-14.38 -0.29,-4.33 -0.3,-5.31 -0.18,-6.65 0.37,-4.23 1.41,-5.09 1.62,-9.17 0.21,-4.07 -0.7,-5.46 0.18,-6.11 z"
           id="path18"
           parte="Aguja" /></g><g
         id="Pescuezo"><path
           class="cls-1"
           d="m 112.32,47.42 c 1.57,1.15 1.29,1.86 4.85,5.57 1.32,1.38 1.42,1.37 2.88,2.88 3.4,3.52 3.21,3.9 5.21,5.75 1.72,1.58 3.22,2.56 5.93,4.31 1.07,0.69 2.56,1.66 4.49,2.7 6.12,3.28 8.82,3.08 9.89,5.39 0.88,1.91 -0.04,4.05 -0.36,4.85 -4.21,10.57 -1.87,27.89 -1.62,29.84 0.57,4.41 2.96,10.85 7.73,23.73 1.37,3.69 2.04,5.16 3.24,6.83 2.85,3.98 5.64,4.88 5.75,7.37 0.1,2.28 -2.12,4.13 -3.78,5.39 -7.49,5.73 -15.5,8.74 -18.52,9.89 -16.17,6.14 -24.25,9.21 -25.71,10.25 -2.02,1.44 -4.67,3.58 -8.09,3.24 -2.52,-0.25 -4.62,-2.15 -8.81,-5.93 -3.67,-3.32 -5.53,-5.04 -6.29,-7.73 -0.5,-1.77 -0.27,-2.77 -1.26,-4.49 -1.08,-1.88 -2.45,-2.61 -4.31,-3.96 -3.78,-2.74 -6.11,-4.42 -6.83,-6.65 -0.97,-2.98 1.49,-5.17 4.67,-11.69 0.82,-1.67 1.98,-4.95 4.31,-11.51 4.26,-11.99 6.36,-24.42 7.19,-29.48 2.69,-16.35 2.81,-29.65 2.7,-33.44 -0.1,-3.24 0.29,-6.51 -0.18,-9.71 -0.35,-2.4 -0.78,-3.66 0,-4.67 0.43,-0.56 1.37,-1.21 8.09,-0.54 4.91,0.49 7.39,0.75 8.81,1.8 z"
           id="path19"
           parte="Pescuezo" /></g><g
         id="Cadera"><path
           class="cls-1"
           d="m 395.29,39.6 c 4.3,-5.17 10.56,-6.35 17.26,-7.55 5.82,-1.04 4.18,0.12 20.49,-0.54 6.86,-0.28 9.39,-0.57 11.87,1.35 2.78,2.15 4.24,6.12 5.57,9.71 0.63,1.71 0.62,2.11 1.62,5.39 2.63,8.64 3.53,8.48 3.6,10.52 0.17,5.12 -5.64,6.17 -14.29,16.72 -4.67,5.69 -7,8.54 -8.36,12.67 -0.34,1.02 -0.5,3.39 -1.32,7.01 -0.9,3.96 -1.36,5.95 -2.18,6.74 -2.86,2.72 -6.98,-1.33 -12.13,1.08 -5.1,2.38 -7.44,8.44 -7.82,9.44 -1.67,4.32 -0.41,5.88 -2.16,7.55 -2.45,2.35 -5.79,0.11 -13.75,0.27 -8.08,0.16 -10.39,2.58 -12.67,0.81 -2.51,-1.95 -1.14,-5.97 -0.27,-15.64 1.36,-15.17 -0.96,-17.11 1.35,-29.93 0.98,-5.47 2.23,-9.66 2.97,-12.13 2.72,-9.1 5.72,-15.26 7.01,-17.8 1.55,-3.05 2.33,-4.57 3.24,-5.66 z"
           id="path20"
           parte="Cadera" /></g><g
         id="Lomo_alto"
         data-name="Lomo alto"><path
           class="cls-1"
           d="m 291.2,55.15 9.8,69.93 -82.97,8.27 c -1.32,0.27 0.66,-23.18 1.98,-26.97 1.99,-5.71 20.8,-54.07 23.19,-50.16 l 48,-1.08 z"
           id="path21"
           parte="Lomo alto" /></g><g
         id="Contra"><path
           class="cls-1"
           d="m 443.29,146.33 c 1.48,-5.52 2.84,-10.02 3.78,-12.97 L 453,119.69 h -11.87 c 0.27,3.51 0.54,7.01 0.81,10.52 -0.19,2.12 -0.73,3.79 -1.18,4.89 -0.47,1.15 -1.18,2.89 -2.79,4.55 -0.36,0.37 -1.29,1.09 -3.13,2.52 -1.55,1.2 -2.32,1.79 -2.79,2.13 -1.27,0.9 -3.22,2.08 -6.02,3.09 l -8.4,36.13 -22.88,63.1 22.88,-3.06 c 4.77,-0.94 8.96,-1.48 12.36,-1.8 2.19,-0.21 5.42,-0.51 9.53,-0.54 1.66,-0.01 5.75,0 5.75,0 -9.7,-27.73 -10.79,-40.09 -10.79,-40.09 -1.45,-16.49 2.36,-30.68 8.81,-54.8 z"
           id="path22"
           parte="Contra" /></g><g
         id="Falda"><path
           class="cls-1"
           d="m 284.73,130.48 c 0.87,-0.34 0.93,0.08 12.67,-0.27 2.23,-0.07 4,-0.14 5.34,-0.19 4.86,-0.2 8.77,-0.42 12.46,-0.62 14.67,-0.8 22.01,-1.15 26.97,-1.35 11.54,-0.45 12.91,0.13 20.49,-0.54 8.95,-0.8 11.65,-3.15 13.48,-1.62 1.26,1.05 0.51,2.57 0.81,8.36 0.28,5.49 1.03,5.4 1.35,10.25 0.32,4.81 -0.34,5.97 -0.81,14.02 0,0 -0.26,4.51 -0.27,10.79 0,6.46 0.57,9.01 2.43,24 2.68,21.7 2.44,24.29 1.76,26.72 -0.36,1.27 -1.4,4.52 -1.22,8.87 0.08,1.92 0.41,3.64 1.08,7.01 1.35,6.84 2.17,8.46 1.35,9.17 -1.41,1.2 -4.46,-2.95 -9.71,-3.51 -4.73,-0.5 -7.76,2.28 -16.18,7.55 0,0 -7.24,4.53 -14.35,8.17 -13.56,6.94 -26.1,8.06 -29.06,8.28 -6.31,0.47 -12.57,-0.5 -25.08,-2.43 -10.87,-1.68 -15.69,-3.22 -15.91,-5.39 -0.14,-1.34 1.59,-1.93 3.51,-4.58 2.81,-3.9 3.01,-8.1 3.24,-10.79 1.13,-13.42 5.51,-19.13 6.2,-43.69 1.04,-37.04 -7.77,-65.39 -0.54,-68.22 z"
           id="path23"
           parte="Falda" /></g><g
         id="Redondo"><path
           class="cls-1"
           d="m 448.14,144.68 c 3.04,-12.78 0.28,0.06 3.78,-12.22 1.91,-6.72 2.68,-10.36 5.93,-12.22 1.7,-0.97 4.22,-1.55 5.21,-0.54 0.8,0.82 0.17,2.23 -0.36,4.85 -0.99,4.9 0.06,5.54 -0.72,11.69 -0.33,2.61 -0.76,4.41 -1.44,7.19 -1.19,4.93 -2.68,9.6 -6.65,19.96 -2.14,5.57 -3.79,9.67 -3.96,10.07 -8.16,20.22 -6.27,45.26 -7.73,45.3 -1.07,0.03 -3.96,-13.43 -3.06,-30.02 0.44,-8.06 3.29,-20.05 8.99,-44.04 z"
           id="path24"
           parte="Redondo" /></g><g
         id="Culata_de_contra"
         data-name="Culata de contra"><path
           class="cls-1"
           d="m 429.08,297.49 c 0.22,-0.12 0.06,-0.62 -0.04,-1.62 -0.4,-3.78 0.77,-6.68 2.2,-10.25 2.25,-5.61 5.79,-14.43 13.66,-17.62 3.29,-1.33 5.27,-0.84 6.31,-2.7 1.07,-1.9 -0.3,-3.7 -2.71,-11.51 -1.83,-5.9 -1.49,-6.33 -2.52,-7.19 -0.84,-0.71 -2.06,-1.27 -15.46,0 -1.84,0.17 -3.6,0.35 -6.29,0.54 -3.13,0.22 -3.81,0.19 -6.11,0.36 -4.18,0.31 -4.4,0.6 -7.91,0.9 -5.05,0.43 -5.45,-0.08 -9.71,0.36 -4.97,0.51 -7.45,0.77 -8.09,1.98 -1.52,2.87 6.43,8.4 15.28,18.16 13.08,14.43 20.15,29.29 21.39,28.58 z"
           id="path25"
           parte="Culata de contra" /></g><g
         id="Morcilo_posterior"
         data-name="Morcilo posterior"><path
           class="cls-1"
           d="m 433.76,305.58 c -0.14,-0.97 -0.76,-5.59 0.36,-11.51 1.12,-5.92 3.42,-10.04 4.13,-11.33 2.65,-4.79 8.89,-13.12 13.48,-11.87 0.58,0.16 1.6,0.6 4.85,7.55 3.62,7.74 5.44,11.73 5.57,17.26 0.03,1.35 -0.09,0.36 -0.9,7.73 -1.15,10.53 -0.8,11.7 -1.8,17.98 -0.97,6.11 -1.43,5.8 -1.44,8.63 0,5.06 1.47,6.82 1.8,12.58 0.16,2.81 -0.21,2.17 -0.54,8.81 -0.35,7.06 -0.23,13.5 -0.18,15.46 0.17,7.22 0.54,7.21 0,8.63 -1.97,5.17 -6.83,5.27 -8.45,10.61 -0.81,2.69 1.02,5.68 -0.54,6.83 -0.59,0.44 -1.76,0.73 -1.93,0.78 -0.72,0.18 -1.33,0.2 -2.56,0.25 -0.63,0.02 -1.53,0.05 -2.71,-0.01 -1.25,-0.07 -2.04,-0.21 -2.68,-0.29 -2.13,-0.28 -2.89,-0.03 -5.53,-0.04 -3.4,-0.02 -5.09,-0.02 -5.44,-0.5 -1.64,-2.27 10.99,-9.61 15.46,-22.83 1.95,-5.78 1.7,-10.59 1.2,-20.21 -0.55,-10.41 -1.03,-19.74 -6.05,-29.77 -2.51,-5.02 -5.17,-8.25 -6.11,-14.74 z"
           id="path26"
           parte="Morcillo posterior" /></g><g
         id="Rabo"><path
           class="cls-1"
           d="m 450.12,33.22 c 1.01,-0.69 3.85,1.81 4.85,2.7 5.5,4.85 4.19,8.95 9.35,15.64 2.95,3.83 4.36,3.77 6.11,7.37 1.36,2.8 1.7,5.3 1.98,8.81 0.97,12.41 0.18,17.62 0.18,17.62 -1.55,13.71 -1.19,27.57 -1.8,41.35 -0.16,3.61 -0.35,11.87 -0.72,28.4 -0.8,35.52 -0.74,44.04 -1.26,59.33 -0.22,6.47 -0.28,12.95 -0.54,19.42 -0.32,7.99 -0.45,8.43 -0.18,10.43 1.31,9.63 6.04,10.84 6.47,18.88 0.12,2.27 -0.29,1.6 -2.52,12.94 -2.12,10.75 -2.29,14.11 -3.42,14.2 -1.25,0.1 -2.07,-3.92 -6.11,-14.92 -3.8,-10.36 -4.22,-9.93 -4.67,-12.76 -1.22,-7.57 1.58,-11.65 3.78,-20.85 0.57,-2.4 0.93,-4.41 1.98,-22.65 1.74,-30.24 2.64,-45.75 2.34,-65.62 -0.07,-4.31 -0.11,-8.63 -0.18,-12.94 -0.4,-22.96 -0.84,-24.3 0.18,-29.12 0.44,-2.11 1.29,-5.47 1.26,-10.25 -0.03,-4.46 -0.8,-7.77 -1.08,-8.99 -2.73,-12.04 -1.71,-17.01 -4.31,-27.87 -4.47,-18.63 -13.67,-29.73 -11.69,-31.1 z"
           id="path27"
           parte="Rabo" /></g></g></g></svg>
